<?xml version="1.0" encoding="UTF-8" standalone="no"?><!DOCTYPE svg PUBLIC "-//W3C//DTD SVG 1.1//EN" "http://www.w3.org/Graphics/SVG/1.1/DTD/svg11.dtd"><svg width="100%" height="100%" viewBox="0 0 188 42" version="1.1" xmlns="http://www.w3.org/2000/svg" xmlns:xlink="http://www.w3.org/1999/xlink" xml:space="preserve" xmlns:serif="http://www.serif.com/" style="fill-rule:evenodd;clip-rule:evenodd;stroke-linejoin:round;stroke-miterlimit:1.41421;"><g id="logo"><path d="M186.351,20.981l-1.858,0c-0.194,0 -0.35,0.157 -0.35,0.35l0,5.287c0,1.563 0.457,2.358 1.816,2.358c0.395,0 0.726,-0.027 0.996,-0.067c0.206,-0.03 0.39,0.13 0.396,0.337l0.051,1.776c0.005,0.163 -0.101,0.309 -0.259,0.35c-0.551,0.144 -1.366,0.252 -2.318,0.252c-1.305,0 -2.392,-0.404 -3.052,-1.052c-0.763,-0.734 -1.111,-1.91 -1.111,-3.584l0,-5.657c0,-0.193 -0.157,-0.35 -0.351,-0.35l-1.303,0c-0.194,0 -0.35,-0.157 -0.35,-0.351l0,-1.705c0,-0.194 0.156,-0.351 0.35,-0.351l1.303,0c0.194,0 0.351,-0.157 0.351,-0.35l0,-2.504c0,-0.305 0.363,-0.464 0.588,-0.258l5.339,4.91c0.235,0.217 0.082,0.609 -0.238,0.609" style="fill:#d93838;fill-rule:nonzero;"/><path d="M169.717,22.681c0,-1.711 -0.04,-2.969 -0.116,-4.107l3.076,0l0.131,2.428l0.1,0c0.692,-1.799 2.33,-2.716 3.845,-2.716c0.347,0 0.549,0.012 0.834,0.07l0,3.042c-0.304,-0.058 -0.614,-0.092 -1.042,-0.092c-1.691,0 -2.866,0.98 -3.184,2.444c-0.059,0.285 -0.09,0.627 -0.09,0.973l0,6.626l-3.554,0l0,-8.668Z" style="fill:#d93838;fill-rule:nonzero;"/><path d="M166.493,28.271l0,-4.6c0,-2.802 -1.286,-5.385 -5.791,-5.385c-1.566,0 -2.932,0.274 -3.975,0.643c-0.139,0.049 -0.228,0.183 -0.228,0.33l0,1.612c0,0.251 0.253,0.418 0.485,0.321c0.897,-0.377 2.021,-0.63 3.107,-0.63c2.619,0 2.899,1.431 2.887,2.101c-0.004,0.189 -0.161,0.337 -0.35,0.339c-4.987,0.048 -8.016,1.678 -8.016,4.836c0,1.948 1.578,3.799 4.428,3.799c1.546,0 2.841,-0.509 3.717,-1.281c0.196,-0.173 0.506,-0.065 0.565,0.19l0.123,0.531c0.037,0.159 0.178,0.272 0.342,0.272l2.512,0c0.213,0 0.376,-0.186 0.346,-0.397c-0.107,-0.748 -0.152,-1.702 -0.152,-2.681m-3.456,-1.413c0,0.224 -0.023,0.478 -0.099,0.702c-0.34,0.935 -1.362,1.768 -2.779,1.768c-1.122,0 -2.025,-0.59 -2.025,-1.84c0,-1.945 2.397,-2.426 4.903,-2.396l0,1.766Z" style="fill:#d93838;fill-rule:nonzero;"/><path d="M147.889,18.483c-1.274,3.69 -3.966,11.045 -4.473,12.429c-0.051,0.138 -0.182,0.227 -0.328,0.227l-2.232,0c-0.153,0 -0.288,-0.098 -0.334,-0.243l-3.937,-12.328c-0.119,-0.371 -0.665,-0.302 -0.684,0.088c-0.187,3.723 -0.583,10.778 -0.673,12.378c-0.011,0.186 -0.164,0.329 -0.35,0.329l-2.602,0c-0.204,0 -0.365,-0.173 -0.35,-0.376l1.242,-16.986c0.014,-0.183 0.166,-0.325 0.349,-0.325l4.091,-0.012c0.15,-0.001 0.284,0.095 0.333,0.237l3.836,11.235c0.107,0.315 0.552,0.318 0.662,0.004c1.026,-2.934 3.846,-9.936 4.38,-11.259c0.053,-0.133 0.182,-0.218 0.325,-0.218l4.042,0c0.185,0 0.338,0.144 0.35,0.328l1.073,16.985c0.013,0.202 -0.148,0.373 -0.35,0.373l-2.754,0c-0.187,0 -0.341,-0.147 -0.35,-0.334l-0.585,-12.434c-0.018,-0.386 -0.555,-0.463 -0.681,-0.098" style="fill:#d93838;fill-rule:nonzero;"/><path d="M119.303,24.975c0,2.458 1.35,4.315 3.493,4.315c2.036,0 3.45,-1.787 3.45,-4.358c0,-2.007 -0.976,-4.3 -3.428,-4.3c-2.492,0 -3.515,2.213 -3.515,4.343m10.594,-0.139c0,4.696 -3.623,6.801 -7.216,6.801c-3.962,0 -7.028,-2.487 -7.028,-6.581c0,-4.19 3.035,-6.77 7.267,-6.77c4.18,0 6.977,2.678 6.977,6.55" style="fill:#808080;fill-rule:nonzero;"/><path d="M113.371,28.271l0,-4.6c0,-2.802 -1.286,-5.385 -5.791,-5.385c-1.566,0 -2.933,0.274 -3.975,0.643c-0.139,0.049 -0.229,0.183 -0.229,0.33l0,1.612c0,0.251 0.254,0.418 0.486,0.321c0.897,-0.377 2.021,-0.63 3.107,-0.63c2.619,0 2.899,1.431 2.887,2.101c-0.004,0.189 -0.161,0.337 -0.351,0.339c-4.986,0.048 -8.016,1.678 -8.016,4.836c0,1.948 1.579,3.799 4.429,3.799c1.546,0 2.84,-0.509 3.716,-1.281c0.197,-0.173 0.507,-0.065 0.566,0.19l0.123,0.531c0.036,0.159 0.178,0.272 0.341,0.272l2.513,0c0.212,0 0.376,-0.186 0.346,-0.397c-0.107,-0.748 -0.152,-1.702 -0.152,-2.681m-3.456,-1.413c0,0.224 -0.023,0.478 -0.099,0.702c-0.341,0.935 -1.362,1.768 -2.78,1.768c-1.122,0 -2.024,-0.59 -2.024,-1.84c0,-1.945 2.397,-2.426 4.903,-2.396l0,1.766Z" style="fill:#808080;fill-rule:nonzero;"/><path d="M99.367,20.981l-2.016,0c-0.194,0 -0.35,0.157 -0.35,0.35l0,5.287c0,1.563 0.457,2.358 1.816,2.358c0.395,0 0.726,-0.027 0.996,-0.067c0.206,-0.03 0.389,0.13 0.395,0.337l0.052,1.776c0.005,0.164 -0.101,0.309 -0.259,0.35c-0.551,0.144 -1.366,0.252 -2.318,0.252c-1.305,0 -2.392,-0.404 -3.052,-1.052c-0.763,-0.734 -1.111,-1.91 -1.111,-3.584l0,-5.657c0,-0.193 -0.157,-0.35 -0.351,-0.35l-1.303,0c-0.193,0 -0.35,-0.157 -0.35,-0.351l0,-1.705c0,-0.194 0.157,-0.351 0.35,-0.351l1.303,0c0.194,0 0.351,-0.157 0.351,-0.35l0,-2.518c0,-0.303 0.359,-0.463 0.584,-0.261l5.497,4.924c0.239,0.215 0.088,0.612 -0.234,0.612" style="fill:#808080;fill-rule:nonzero;"/><path d="M86.13,30.998l0,-12.073c0,-0.194 0.157,-0.351 0.351,-0.351l2.853,0c0.193,0 0.35,0.157 0.35,0.351l0,12.073c0,0.194 -0.157,0.351 -0.35,0.351l-2.853,0c-0.194,0 -0.351,-0.157 -0.351,-0.351m3.762,-15.999c0.004,0.965 -0.766,1.742 -2.024,1.742c-1.178,0 -1.95,-0.777 -1.946,-1.742c-0.004,-0.984 0.795,-1.746 1.988,-1.746c1.207,0 1.97,0.753 1.982,1.746" style="fill:#808080;fill-rule:nonzero;"/><path d="M82.428,29.096c0,-0.231 -0.22,-0.399 -0.443,-0.336c-0.928,0.26 -1.963,0.422 -3.321,0.422c-2.137,0 -4.005,-0.893 -4.301,-2.923c-0.03,-0.212 0.135,-0.404 0.349,-0.404l8.72,0c0.176,0 0.322,-0.129 0.348,-0.303c0.04,-0.273 0.068,-0.634 0.068,-1.053c0,-2.799 -1.487,-6.213 -6.053,-6.213c-4.518,0 -6.869,3.336 -6.869,6.861c0,3.915 2.671,6.477 7.231,6.477c1.579,0 2.931,-0.209 4.02,-0.519c0.15,-0.042 0.251,-0.181 0.251,-0.337l0,-1.672Zm-2.289,-5.492c0.203,0 0.368,-0.172 0.35,-0.375c-0.101,-1.175 -0.773,-2.738 -2.915,-2.738c-1.959,0 -2.892,1.449 -3.179,2.691c-0.05,0.217 0.122,0.422 0.344,0.422l5.4,0Z" style="fill:#808080;"/><path d="M64.038,18.483c-1.274,3.69 -3.966,11.045 -4.474,12.429c-0.05,0.138 -0.181,0.227 -0.328,0.227l-2.231,0c-0.153,0 -0.288,-0.098 -0.334,-0.243l-3.937,-12.328c-0.119,-0.371 -0.665,-0.302 -0.685,0.088c-0.186,3.723 -0.582,10.778 -0.672,12.378c-0.011,0.186 -0.164,0.329 -0.35,0.329l-2.603,0c-0.203,0 -0.364,-0.173 -0.349,-0.376l1.242,-16.986c0.014,-0.183 0.165,-0.325 0.349,-0.325l4.091,-0.012c0.15,-0.001 0.284,0.095 0.333,0.237l3.835,11.235c0.108,0.315 0.553,0.318 0.662,0.004c1.027,-2.934 3.846,-9.936 4.381,-11.259c0.053,-0.133 0.181,-0.218 0.324,-0.218l4.043,0c0.185,0 0.338,0.144 0.35,0.328l1.072,16.985c0.013,0.202 -0.147,0.373 -0.349,0.373l-2.755,0c-0.187,0 -0.341,-0.147 -0.35,-0.334l-0.584,-12.434c-0.018,-0.386 -0.555,-0.463 -0.681,-0.098" style="fill:#808080;fill-rule:nonzero;"/><g><path d="M5.81,6.601c0.553,0.017 1.092,0.294 1.404,0.826c0.319,0.544 0.502,1.176 0.502,1.852l0,14.397c0,0.726 0.532,1.374 1.255,1.443c0.83,0.079 1.527,-0.571 1.527,-1.384l0,-3.679c0,-1.98 1.519,-3.686 3.497,-3.783c2.115,-0.105 3.868,1.585 3.868,3.676l0,6.447c0,0.726 0.532,1.374 1.255,1.443c0.83,0.079 1.528,-0.571 1.528,-1.384l0,-6.399c0,-1.98 1.518,-3.686 3.497,-3.783c2.114,-0.105 3.868,1.585 3.868,3.676l0,8.513c0,1.92 0.841,3.647 2.175,4.831c0.735,0.653 0.748,1.805 0.06,2.509c-1.87,1.913 -4.248,4.043 -6.91,5.724c-0.184,0.116 -0.375,0.168 -0.559,0.17l-0.019,0c-0.728,-0.007 -1.34,-0.801 -0.951,-1.569c0.013,-0.024 0.025,-0.049 0.038,-0.074c0.381,-0.756 -0.219,-1.63 -1.062,-1.557c-1.054,0.09 -2.131,0.094 -3.227,0.005c-9.414,-0.766 -16.929,-8.419 -17.518,-17.841c-0.024,-0.394 -0.037,-0.786 -0.038,-1.174l0,-0.1c0.012,-4.614 1.663,-8.847 4.4,-12.147c0.354,-0.427 0.859,-0.639 1.357,-0.639l0.053,0.001Zm4.688,2.678l0,4.657c0,0.297 0.318,0.491 0.578,0.348c0.922,-0.507 1.98,-0.797 3.105,-0.797c1.895,0 3.601,0.821 4.784,2.123c0.156,0.172 0.423,0.172 0.579,0c1.19,-1.31 2.91,-2.133 4.819,-2.123c3.581,0.02 6.429,3.03 6.429,6.609l0,8.367c0,1.046 0.44,1.99 1.144,2.66c0.745,0.709 1.958,0.567 2.559,-0.268l0,0c2.425,-3.252 3.84,-7.301 3.782,-11.682c-0.138,-10.258 -8.493,-18.664 -18.754,-18.865c-3.588,-0.071 -6.957,0.85 -9.854,2.505c-0.911,0.521 -1.128,1.724 -0.492,2.557c0.829,1.086 1.321,2.441 1.321,3.909Z" style="fill:#d93838;fill-rule:nonzero;"/></g><rect x="0" y="0" width="188" height="42" style="fill:none;"/></g></svg>